<mxfile host="app.diagrams.net" modified="2023-06-12T16:03:43.153Z" agent="Mozilla/5.0 (Macintosh; Intel Mac OS X 10_15_7) AppleWebKit/537.36 (KHTML, like Gecko) Chrome/114.0.0.0 Safari/537.36" version="21.3.8" etag="s7p8qTVgKfRMcAT19R0e" type="github">
  <diagram name="หน้า-1" id="RmDHko1JIq4vS6ycplGa">
    <mxGraphModel>
      <root>
        <mxCell id="0" />
        <mxCell id="1" parent="0" />
      </root>
    </mxGraphModel>
  </diagram>
</mxfile>
